bw_sq_140_01
version=1
nRows=15
nColumns=46
inDegrees=yes
endheader
time	ground_force3_vx	ground_force3_vy	ground_force3_vz	ground_force3_px	ground_force3_py	ground_force3_pz	ground_torque3_x	ground_torque3_y	ground_torque3_z	ground_force5_vx	ground_force5_vy	ground_force5_vz	ground_force5_px	ground_force5_py	ground_force5_pz	ground_torque5_x	ground_torque5_y	ground_torque5_z	ground_force4_vx	ground_force4_vy	ground_force4_vz	ground_force4_px	ground_force4_py	ground_force4_pz	ground_torque4_x	ground_torque4_y	ground_torque4_z	ground_force1_vx	ground_force1_vy	ground_force1_vz	ground_force1_px	ground_force1_py	ground_force1_pz	ground_torque1_x	ground_torque1_y	ground_torque1_z	ground_force2_vx	ground_force2_vy	ground_force2_vz	ground_force2_px	ground_force2_py	ground_force2_pz	ground_torque2_x	ground_torque2_y	ground_torque2_z
3.423000	-0.000000	-0.000000	0.000000	0.200000	0.000000	-0.300000	0.000000	0.000000	-0.000000	-0.879419	354.029694	117.742172	0.188542	0.000000	-1.597184	0.000038	2.000387	-0.000001	7.478932	329.581726	-116.339493	0.181944	0.000000	-0.821837	0.000016	-1.128828	0.000003	-0.000000	-0.000000	0.000000	0.200000	0.000000	0.904000	0.000000	0.000000	-0.000000	-0.000000	-0.000000	0.000000	0.400000	0.000000	0.302000	0.000000	0.000000	-0.000000	
3.424000	-0.000000	-0.000000	0.000000	0.200000	0.000000	-0.300000	0.000000	0.000000	-0.000000	-1.200826	353.714813	117.421104	0.189192	0.000000	-1.596788	0.000031	1.924105	0.000006	7.804106	330.850525	-115.535812	0.183890	0.000000	-0.820458	0.000026	-0.845210	0.000000	-0.000000	-0.000000	0.000000	0.200000	0.000000	0.904000	0.000000	0.000000	-0.000000	-0.000000	-0.000000	0.000000	0.400000	0.000000	0.302000	0.000000	0.000000	-0.000000	
3.425000	-0.000000	-0.000000	0.000000	0.200000	0.000000	-0.300000	0.000000	0.000000	-0.000000	-0.878910	354.351593	117.099701	0.189048	0.000000	-1.596658	0.000036	1.907373	0.000002	6.834761	326.685883	-116.502068	0.183875	0.000000	-0.820884	0.000025	-0.881061	-0.000000	-0.000000	-0.000000	0.000000	0.200000	0.000000	0.904000	0.000000	0.000000	-0.000000	-0.000000	-0.000000	0.000000	0.400000	0.000000	0.302000	0.000000	0.000000	-0.000000	
3.426000	-0.000000	-0.000000	0.000000	0.200000	0.000000	-0.300000	0.000000	0.000000	-0.000000	-0.235078	353.395569	117.421104	0.189633	0.000000	-1.597785	0.000040	1.782674	0.000006	6.345457	328.612640	-115.373230	0.182964	0.000000	-0.821997	0.000017	-1.118642	0.000003	-0.000000	-0.000000	0.000000	0.200000	0.000000	0.904000	0.000000	0.000000	-0.000000	-0.000000	-0.000000	0.000000	0.400000	0.000000	0.302000	0.000000	0.000000	-0.000000	
3.427000	-0.000000	-0.000000	0.000000	0.200000	0.000000	-0.300000	0.000000	0.000000	-0.000000	-1.040123	353.078003	116.939507	0.189605	0.000000	-1.597037	0.000033	1.945864	0.000004	6.672174	327.965454	-115.535812	0.184145	0.000000	-0.820675	0.000006	-0.878239	0.000001	-0.000000	-0.000000	0.000000	0.200000	0.000000	0.904000	0.000000	0.000000	-0.000000	-0.000000	-0.000000	0.000000	0.400000	0.000000	0.302000	0.000000	0.000000	-0.000000	
3.428000	-0.000000	-0.000000	0.000000	0.200000	0.000000	-0.300000	0.000000	0.000000	-0.000000	-1.201336	353.393250	118.064590	0.189476	0.000000	-1.596255	0.000007	2.038504	0.000002	5.863873	328.281616	-115.697357	0.184149	0.000000	-0.820974	0.000015	-0.935671	0.000005	-0.000000	-0.000000	0.000000	0.200000	0.000000	0.904000	0.000000	0.000000	-0.000000	-0.000000	-0.000000	0.000000	0.400000	0.000000	0.302000	0.000000	0.000000	-0.000000	
3.429000	-0.000000	-0.000000	0.000000	0.200000	0.000000	-0.300000	0.000000	0.000000	-0.000000	-0.557503	353.713470	117.261253	0.190475	0.000000	-1.595762	0.000025	1.872199	0.000001	6.506499	327.325989	-115.537842	0.183372	0.000000	-0.822074	-0.000001	-1.229429	-0.000000	-0.000000	-0.000000	0.000000	0.200000	0.000000	0.904000	0.000000	0.000000	-0.000000	-0.000000	-0.000000	0.000000	0.400000	0.000000	0.302000	0.000000	0.000000	-0.000000	
3.430000	-0.000000	-0.000000	0.000000	0.200000	0.000000	-0.300000	0.000000	0.000000	-0.000000	-0.879419	352.440918	117.582993	0.190002	0.000000	-1.596409	0.000016	1.999697	0.000003	6.673719	326.681152	-115.536819	0.184254	0.000000	-0.822656	0.000013	-0.852648	0.000003	-0.000000	-0.000000	0.000000	0.200000	0.000000	0.904000	0.000000	0.000000	-0.000000	-0.000000	-0.000000	0.000000	0.400000	0.000000	0.302000	0.000000	0.000000	-0.000000	
3.431000	-0.000000	-0.000000	0.000000	0.200000	0.000000	-0.300000	0.000000	0.000000	-0.000000	-1.040123	352.118713	116.940521	0.190074	0.000000	-1.596408	-0.000004	2.006039	0.000006	6.184413	326.360229	-115.375275	0.183848	0.000000	-0.821989	0.000021	-1.074644	0.000004	-0.000000	-0.000000	0.000000	0.200000	0.000000	0.904000	0.000000	0.000000	-0.000000	-0.000000	-0.000000	0.000000	0.400000	0.000000	0.302000	0.000000	0.000000	-0.000000	
3.432000	-0.000000	-0.000000	0.000000	0.200000	0.000000	-0.300000	0.000000	0.000000	-0.000000	-0.718206	353.075684	116.136154	0.190640	0.000000	-1.595732	0.000005	1.805473	0.000004	6.024916	327.315247	-115.373230	0.184662	0.000000	-0.822015	0.000003	-0.819309	0.000001	-0.000000	-0.000000	0.000000	0.200000	0.000000	0.904000	0.000000	0.000000	-0.000000	-0.000000	-0.000000	0.000000	0.400000	0.000000	0.302000	0.000000	0.000000	-0.000000	
3.433000	-0.000000	-0.000000	0.000000	0.200000	0.000000	-0.300000	0.000000	0.000000	-0.000000	-0.718206	354.353577	117.101730	0.191078	0.000000	-1.595623	0.000036	1.917535	0.000002	6.509588	326.360260	-115.538864	0.184099	0.000000	-0.822775	0.000026	-1.059007	0.000000	-0.000000	-0.000000	0.000000	0.200000	0.000000	0.904000	0.000000	0.000000	-0.000000	-0.000000	-0.000000	0.000000	0.400000	0.000000	0.302000	0.000000	0.000000	-0.000000	
3.434000	-0.000000	-0.000000	0.000000	0.200000	0.000000	-0.300000	0.000000	0.000000	-0.000000	-1.362039	352.122345	117.101730	0.191034	0.000000	-1.595320	0.000012	1.981509	0.000003	6.185958	327.636139	-114.892647	0.184818	0.000000	-0.821827	0.000016	-0.908641	0.000003	-0.000000	-0.000000	0.000000	0.200000	0.000000	0.904000	0.000000	0.000000	-0.000000	-0.000000	-0.000000	0.000000	0.400000	0.000000	0.302000	0.000000	0.000000	-0.000000	
3.435000	-0.000000	-0.000000	0.000000	0.200000	0.000000	-0.300000	0.000000	0.000000	-0.000000	-1.522233	354.989349	117.584015	0.190777	0.000000	-1.595025	0.000012	1.953052	0.000001	5.859240	328.920074	-114.410027	0.184361	0.000000	-0.822470	0.000016	-1.132460	0.000000	-0.000000	-0.000000	0.000000	0.200000	0.000000	0.904000	0.000000	0.000000	-0.000000	-0.000000	-0.000000	0.000000	0.400000	0.000000	0.302000	0.000000	0.000000	-0.000000	
3.436000	-0.000000	-0.000000	0.000000	0.200000	0.000000	-0.300000	0.000000	0.000000	-0.000000	-1.200826	353.713806	116.458908	0.191189	0.000000	-1.594809	0.000037	1.910009	0.000002	6.512677	327.320618	-114.089973	0.184263	0.000000	-0.822603	0.000013	-0.905164	0.000004	-0.000000	-0.000000	0.000000	0.200000	0.000000	0.904000	0.000000	0.000000	-0.000000	-0.000000	-0.000000	0.000000	0.400000	0.000000	0.302000	0.000000	0.000000	-0.000000	
3.437000	-0.000000	-0.000000	0.000000	0.200000	0.000000	-0.300000	0.000000	0.000000	-0.000000	-0.879419	354.032715	116.941528	0.191545	0.000000	-1.594844	0.000037	1.965701	0.000002	5.701286	326.352203	-114.250511	0.184907	0.000000	-0.822179	0.000019	-0.974762	0.000003	-0.000000	-0.000000	0.000000	0.200000	0.000000	0.904000	0.000000	0.000000	-0.000000	-0.000000	-0.000000	0.000000	0.400000	0.000000	0.302000	0.000000	0.000000	-0.000000	
